<mxfile host="app.diagrams.net" agent="Mozilla/5.0 (Macintosh; Intel Mac OS X 10_15_7) AppleWebKit/537.36 (KHTML, like Gecko) Chrome/129.0.0.0 Safari/537.36" version="24.8.0">
  <diagram name="第 1 页" id="C8X3FO1t-Sa72mDm31q1">
    <mxGraphModel dx="1026" dy="650" grid="1" gridSize="10" guides="1" tooltips="1" connect="1" arrows="1" fold="1" page="1" pageScale="1" pageWidth="827" pageHeight="1169" math="0" shadow="0">
      <root>
        <mxCell id="0" />
        <mxCell id="1" parent="0" />
        <mxCell id="uKG23Ae59AoujPWbYuRa-3" value="" style="edgeStyle=orthogonalEdgeStyle;rounded=0;orthogonalLoop=1;jettySize=auto;html=1;" edge="1" parent="1" source="uKG23Ae59AoujPWbYuRa-1" target="uKG23Ae59AoujPWbYuRa-4">
          <mxGeometry relative="1" as="geometry">
            <mxPoint x="330" y="265" as="targetPoint" />
          </mxGeometry>
        </mxCell>
        <mxCell id="uKG23Ae59AoujPWbYuRa-1" value="标签分类查询" style="ellipse;whiteSpace=wrap;html=1;" vertex="1" parent="1">
          <mxGeometry x="280" y="150" width="100" height="50" as="geometry" />
        </mxCell>
        <mxCell id="uKG23Ae59AoujPWbYuRa-8" value="" style="edgeStyle=orthogonalEdgeStyle;rounded=0;orthogonalLoop=1;jettySize=auto;html=1;" edge="1" parent="1" source="uKG23Ae59AoujPWbYuRa-4" target="uKG23Ae59AoujPWbYuRa-7">
          <mxGeometry relative="1" as="geometry" />
        </mxCell>
        <mxCell id="uKG23Ae59AoujPWbYuRa-4" value="查询分类表&lt;div&gt;全部数据&lt;/div&gt;" style="shape=process;whiteSpace=wrap;html=1;backgroundOutline=1;" vertex="1" parent="1">
          <mxGeometry x="270" y="260" width="120" height="60" as="geometry" />
        </mxCell>
        <mxCell id="uKG23Ae59AoujPWbYuRa-12" value="" style="edgeStyle=orthogonalEdgeStyle;rounded=0;orthogonalLoop=1;jettySize=auto;html=1;" edge="1" parent="1" source="uKG23Ae59AoujPWbYuRa-7" target="uKG23Ae59AoujPWbYuRa-11">
          <mxGeometry relative="1" as="geometry" />
        </mxCell>
        <mxCell id="uKG23Ae59AoujPWbYuRa-7" value="标签分类进行四级分类，拆分" style="rounded=1;whiteSpace=wrap;html=1;" vertex="1" parent="1">
          <mxGeometry x="270" y="400" width="120" height="60" as="geometry" />
        </mxCell>
        <mxCell id="uKG23Ae59AoujPWbYuRa-11" value="数据封装返回" style="whiteSpace=wrap;html=1;rounded=1;" vertex="1" parent="1">
          <mxGeometry x="270" y="540" width="120" height="60" as="geometry" />
        </mxCell>
      </root>
    </mxGraphModel>
  </diagram>
</mxfile>
